<svg xmlns="http://www.w3.org/2000/svg" viewBox="0 0 408 91.75"><defs><style>.cls-1{fill:#e0dacc;}</style></defs><title>Asset 1</title><g id="Layer_2" data-name="Layer 2"><g id="Layer_1-2" data-name="Layer 1"><path class="cls-1" d="M-524-185.55a37.23,37.23,0,0,1,37.2-37.29,37.24,37.24,0,0,1,37.29,37.29,37.24,37.24,0,0,1-37.29,37.3A37.23,37.23,0,0,1-524-185.55Zm63.65,0a26.53,26.53,0,0,0-26.45-26.85,26.52,26.52,0,0,0-26.36,26.85,26.43,26.43,0,0,0,26.36,26.76A26.45,26.45,0,0,0-460.34-185.55Z" transform="translate(560 240)"/><path class="cls-1" d="M-399.18-185.75l-10.54,12.64v21.88a2,2,0,0,1-2,2h-6.86a2,2,0,0,1-2-2v-68.63a2,2,0,0,1,2-2h6.86a2,2,0,0,1,2,2v32.62l28.24-33.89a2,2,0,0,1,1.53-.72h8.05c2.34,0,3,1.47,1.53,3.26l-21.15,25.39,24.64,40.94a2,2,0,0,1-1.7,3h-7.69a2,2,0,0,1-1.71-1Z" transform="translate(560 240)"/><path class="cls-1" d="M-313.06-221.85h8.36a2,2,0,0,1,1.87,1.3l25.19,68.63a2,2,0,0,1-1.87,2.67h-7a2,2,0,0,1-1.87-1.3l-5.19-14.21H-324.2l-5.09,14.2a2,2,0,0,1-1.88,1.31h-7.08a2,2,0,0,1-1.87-2.67l25.19-68.63A2,2,0,0,1-313.06-221.85Zm-7.36,46.75h23.08l-11.54-31.83Z" transform="translate(560 240)"/><path class="cls-1" d="M-205.15-164.66H-238v13.43a2,2,0,0,1-2,2h-6.87a2,2,0,0,1-2-2v-68.63a2,2,0,0,1,2-2H-240a2,2,0,0,1,2,2V-175h32.82v-44.86a2,2,0,0,1,2-2h6.77a2,2,0,0,1,2,2v68.63a2,2,0,0,1-2,2h-6.77a2,2,0,0,1-2-2Z" transform="translate(560 240)"/><path class="cls-1" d="M-524.25-185.66A37.25,37.25,0,0,1-487-223a37.27,37.27,0,0,1,37.32,37.32A37.26,37.26,0,0,1-487-148.35,37.24,37.24,0,0,1-524.25-185.66Zm63.69,0A26.54,26.54,0,0,0-487-212.53c-14.83,0-26.37,12.14-26.37,26.87A26.44,26.44,0,0,0-487-158.89,26.46,26.46,0,0,0-460.56-185.66Z" transform="translate(560 240)"/><path class="cls-1" d="M-399.36-185.86l-10.55,12.63v23.89h-10.85V-222h10.85v34.63L-381-222h13.24l-23.89,28.66,26.47,44h-12.34Z" transform="translate(560 240)"/><path class="cls-1" d="M-314.58-222h11.15l26.67,72.65H-288l-5.67-15.53h-30.65l-5.57,15.53h-11.35Zm-6,46.77h23.09L-309-207.06Z" transform="translate(560 240)"/><path class="cls-1" d="M-205.21-164.6H-238v15.26H-248.9V-222H-238v47h32.84v-47h10.75v72.65h-10.75Z" transform="translate(560 240)"/><path class="cls-1" d="M-556-189.85h1.66l3.95,10.77H-560Z" transform="translate(560 240)"/><path class="cls-1" d="M-157.61-189.85h1.66l3.95,10.77h-9.56Z" transform="translate(560 240)"/><polygon class="cls-1" points="56.51 0 56.51 10.75 56.51 10.89 89.12 10.89 89.12 10.75 89.12 0 56.51 0"/></g></g></svg>